<svg xmlns="http://www.w3.org/2000/svg" viewBox="0 0 512 512">
  <rect width="512" height="512" rx="112" fill="#0e8ba8"/>
  <rect width="512" height="512" rx="112" fill="url(#g)"/>
  <defs>
    <linearGradient id="g" x1="0" y1="0" x2="0" y2="1">
      <stop offset="0" stop-color="#ffffff" stop-opacity="0.10"/>
      <stop offset="1" stop-color="#0a6a80" stop-opacity="0.55"/>
    </linearGradient>
  </defs>
  <g fill="none" stroke="#ffffff" stroke-width="16" stroke-linecap="round" stroke-linejoin="round">
    <!-- central post -->
    <line x1="256" y1="128" x2="256" y2="380"/>
    <!-- beam -->
    <line x1="140" y1="176" x2="372" y2="176"/>
    <!-- top knob -->
    <circle cx="256" cy="120" r="14" fill="#ffffff" stroke="none"/>
    <!-- base -->
    <path d="M212 384 h88"/>
    <path d="M228 384 q28 -34 0 -68 M284 384 q-28 -34 0 -68"/>
    <!-- left hanger lines -->
    <line x1="140" y1="176" x2="112" y2="248"/>
    <line x1="140" y1="176" x2="168" y2="248"/>
    <!-- left pan -->
    <path d="M100 248 a40 22 0 0 0 80 0 Z" fill="#ffffff" stroke="none"/>
    <!-- right hanger lines -->
    <line x1="372" y1="176" x2="344" y2="248"/>
    <line x1="372" y1="176" x2="400" y2="248"/>
    <!-- right pan -->
    <path d="M332 248 a40 22 0 0 0 80 0 Z" fill="#ffffff" stroke="none"/>
  </g>
</svg>
